<svg id="Albert_Park" data-name="Albert Park" xmlns="http://www.w3.org/2000/svg" viewBox="0 0 883.97 446.46"><path d="M586.79,718.34s-170.36,2-187,0c-18.48-2.22,8-46-71-48-85.19-2.16-117.23,3.74-208-24-36-11-14-32-6-43,8.48-11.66,29.48-22.35-1-47-47-38-62-36-45-112,12.61-56.38,30.19-68.47,34-89,5-27-5-34,35-32s55.94-75.55,142-26c132,76,74,66,86,101,19.76,57.63,98,145,166,138,43.37-4.46,92.22,6.87,108-28,10-22.21,12-26,58-27,24.08-.52,53.09-2.72,79-2,36,1,70,19,118,51s56,9,24,82-27,67-88,44-51-16-52,24c-.63,25-1,40-43.56,37.84C707.44,716.77,661.85,719.47,586.79,718.34Z" transform="translate(-58.01 -276.77)" style="fill:none;stroke:#000;stroke-miterlimit:10;stroke-width:8px"/></svg>