<svg id="Catalunya" xmlns="http://www.w3.org/2000/svg" viewBox="0 0 899.98 281.74"><path d="M683,629.29c-509-12-510,19-512-36-1.62-44.49-46.33-65.13-76.5-73.5-59.5-16.5-71.6-155.55,91-156,46.63-.13,98-3.53,143.86,6.44,10.52,2.29,29.24,7.22,33.77,18.08,4.74,11.35-3.48,27.09-8.13,37-13.4,28.47-43.8,35.19-73.45,36-29,.76-56.83-6.41-85.71-5-11,.53-24.2.5-33.74,7.32-23.25,16.61,17.63,45.63,29.4,54.25,85.65,62.81,74,59,151,62s57-12,56-44,12.07-36.42,52.5-97.5c47-71,69-73,121-35,33.57,24.54,91.16,56.43,142,87,143,86,161,107,132,24-14.82-42.4-17-37-37-43-63-19-59-113,35.5-70.5,89.37,40.2,78.21,17,80,76,.5,16.5-2.5,38.5,7,42,21.6,8,13.06-3.48,11.5,43.5-1,30-1,68-61,74C851.57,639.34,683,629.29,683,629.29Z" transform="translate(-50.01 -359.13)" style="fill:none;stroke:#000;stroke-miterlimit:10;stroke-width:8px"/></svg>