<svg id="Monza" xmlns="http://www.w3.org/2000/svg" viewBox="0 0 962.92 476.72"><path d="M387.13,727.13l-.12-.34c-1.4-4.17,2-9.74-1.29-12.71-2.16-2-5.59-1-8.32,0-17.81,7-35.08,13-54,16.22-22.91,3.91-45.73,4-68.88,4-91.95-3-127.83-81.66-137-145-3.77-26-7.1-52.1-11-78.11-2.73-18.35-4.72-39.27-11.77-56.53a11.6,11.6,0,0,0-3.48-5.19c-3.06-2.24-7.75-.42-11.35-2.38-3.76-2-6.11-5.82-7.43-9.79-22-66-68.71-121.63-42-143C47.89,280.5,75,276.51,96.12,272.46c12.74-2.45,26.21-5.74,39.12-6.69,6.5-.48,13.24.31,19,3.34,6.92,3.62,11.68,10,15.69,16.53,4.37,7.1,9.53,13.59,14.27,20.49,19.15,27.89,38.23,55.84,59.71,82,9.11,11.11,18.62,21.91,28.64,32.21,70,72,110.44,101.4,182,167,24,22,29.9-19.08,70,15,17.17,14.6,43.64,11,64.35,10.77,30-.32,60-.6,90-.5q77,.27,154,.49l59,.16,24.77.05c11.52,0,24-1.8,35.24,1.17,12.37,3.27,22.82,15.87,25,28.39,5.15,29.39-25.73,58.44-51.2,66.2-43.78,13.34-93,14.36-138.34,15.82-33.58,1.07-67.2,1.05-100.79.45-63.09-1.13-126.24,2.77-189.25,5.37-33.47,1.39-67,.46-100.25,1.11C393.16,731.92,388.58,730.68,387.13,727.13Z" transform="translate(-18.54 -261.64)" style="fill:none;stroke:#000;stroke-miterlimit:10;stroke-width:8px"/></svg>