<svg id="Layer_2" data-name="Layer 2" xmlns="http://www.w3.org/2000/svg" viewBox="0 0 889.87 575.31"><path d="M425.6,782.74c-21.92.46-84.69.25-151,0s-136.17-.45-172.26,0c-8.63.1-38.81,4.24-42.69-6-1.6-4.21.2-9.1,3.28-12.39,10.19-10.87,21.53-18.86,30.28-31.83,13.24-19.63,5.25-31-3.88-49.08s-19.41-42.69-10.73-88.8c3.87-20.59,13.08-95.86,22.65-172.51s19.51-154.71,24.83-180.87c9.07-44.58,47.79-20.46,66.28,3.82,15,19.71,30.3,37.95,48,55.25,25.92,25.32,55.14,48.6,73.81,51.42,24.2,3.65,36.44,14.88,41.19,29.52s2,32.66-3.75,49.92c-7.3,21.92,7.31,41.32,29.45,59.36s51.82,34.69,74.65,51.13c12.14,8.74,33.67,23.36,38.89,34.53s-5.87,18.91-59,13.87c-72.14-6.85-123.73-16.67-160.82-19.64s-59.7.92-73.85,21.46c-16.89,24.51-24.31,34.74-16.16,39.54s31.89,4.19,77.34,7c58.44,3.65,104.56,3.15,157.41,2.33s112.44-2,197.79.41c32.87.91,61.41,3.65,80.13-2.17s27.62-20.2,21.23-53.53c-6.22-32.41-20.83-51.36-39.36-63.91s-41-18.73-62.91-25.58c-20.43-6.38-40.69-18.13-54.62-37.37s-22.65-47.83-13-83.16c12.78-46.57,33.64-77.88,34.7-79.44,32.87-48.4,56.61-54.79,104.09,25.57C741.39,412.54,770.32,463.38,808.1,522c40.11,62.23,79.82,126,117.43,189.41,17.12,28.87,25.57,39.47-5,57.64-29.22,17.35-79.44,13.69-194.5,13.69-93.18,0-163.45,0-216.86-.22S425.6,782.74,425.6,782.74Z" transform="translate(-55.06 -212.35)" style="fill:none;stroke:#000;stroke-miterlimit:10;stroke-width:8px"/></svg>