<svg id="Sochi" xmlns="http://www.w3.org/2000/svg" viewBox="0 0 982.07 575.27"><path d="M804.33,498.21C723.24,520.72,642,542.8,560.4,563.43c-27.12,6.86-57.43,18.09-85,20.78-7.79.76-16.22-1.12-21.67-6.74-7.92-8.18-11.28-20.71-18.09-30-22.59-30.88-64.12-58.79-102.91-61.05-37.43-2.18-77.61,17.23-94.32,51.69-21.3,43.92,3.75,78.44,19.91,118.11,11.72,28.76,34,25-75,74-125.34,56.35-120.25,78.32-144,15-24-64-33.17-56.47-21-114,11-52-5.43-28.79,108-45,84-12,65.35-8.91,73-38,10-38-2.71-37.34-25-98-4.33-11.79-15.18-27.58-14.57-40.56.69-14.75,17.41-19.45,29.26-23.38,72.46-24.08,143.41-23.1,216.31-2.07,118.81,34.27,199.3,95.86,273,70,8.32-2.92,34-18.07,42.55-14.65,6.72,2.68,8.82,19.54,11.44,25.65,6,13.92,7.89,24.07,24.17,19.25,31.5-9.32,48.21-25.38,66.83-51.25,12-16.63,26-28.28,4-40-35.17-18.71-18.06-31.1,48-124,32-45,27-67,71-43,8.07,4.4,38.3,11.54,40.56,21.06,2,8.47-17.9,29.36-22.92,36.61-13.6,19.64-26.42,39.81-38.64,60.33C844.33,480.21,823.33,489.21,804.33,498.21Z" transform="translate(-8.97 -212.37)" style="fill:none;stroke:#000;stroke-miterlimit:10;stroke-width:8px"/></svg>